<svg width="16" height="17" viewBox="0 0 16 17" fill="none" xmlns="http://www.w3.org/2000/svg">
    <path
        d="M15.0747 5.94832C15.0747 6.5637 15.1363 7.54832 15.1363 8.90216C15.1363 10.256 15.1363 11.3022 15.0747 11.856C15.0747 12.4099 14.9517 12.9022 14.8286 13.456C14.4594 14.5022 13.5979 15.3637 12.5517 15.7329C12.0594 15.9175 11.5056 15.9791 10.9517 15.9791C10.3363 16.0406 9.35171 16.0406 7.99787 16.0406C6.64402 16.0406 5.59784 15.9791 5.04399 15.9791C4.49014 15.9791 3.99784 15.856 3.44399 15.6714C2.89014 15.4868 2.39784 15.2406 2.02861 14.8099C1.65937 14.4406 1.35168 13.9483 1.16707 13.3945C0.982452 12.9022 0.920913 12.3483 0.920913 11.7945C0.859375 11.1791 0.859375 10.1945 0.859375 8.77909C0.859375 7.3637 0.859375 6.37909 0.920913 5.82524C0.920913 5.27139 1.04399 4.77909 1.16707 4.22524C1.5363 3.17909 2.39784 2.37909 3.44399 2.00986C3.9363 1.82524 4.49014 1.7637 5.04399 1.70216C5.65937 1.64063 6.64402 1.64062 7.99787 1.64062C9.35171 1.64062 10.3979 1.64063 10.9517 1.70216C11.5056 1.70216 11.9979 1.82524 12.5517 1.94832C13.5979 2.31755 14.4594 3.17909 14.8286 4.22524C14.9517 4.84063 15.0132 5.39447 15.0747 5.94832ZM7.81325 11.5483C9.29018 11.5483 10.4594 10.3791 10.4594 8.90216C10.4594 7.42524 9.29018 6.25601 7.81325 6.25601C7.07479 6.25601 6.39784 6.50216 5.90553 7.05601C5.41322 7.54832 5.10553 8.22524 5.10553 8.9637C5.10553 9.70216 5.35168 10.3791 5.90553 10.8714C6.39784 11.3022 7.07479 11.5483 7.81325 11.5483ZM12.6748 5.02524C12.6748 4.77909 12.6133 4.59447 12.4286 4.40986C12.244 4.22524 12.0594 4.1637 11.8133 4.1637C11.3209 4.1637 10.9517 4.53293 10.9517 5.02524C10.9517 5.51755 11.3209 5.88678 11.8133 5.88678C12.0594 5.88678 12.244 5.82524 12.4286 5.64063C12.5517 5.51755 12.6133 5.27139 12.6748 5.02524Z"
        stroke="#2D2D2E" strokeWidth="1.5" />
</svg>