<svg width="16" height="17" viewBox="0 0 16 17" fill="none" xmlns="http://www.w3.org/2000/svg">
<path d="M3.57142 16.8197V6.14118H0.249996V16.8197H3.57142ZM1.89286 4.71261C2.96429 4.71261 3.82143 3.81976 3.82143 2.74832C3.82143 1.71261 2.96429 0.855469 1.89286 0.855469C0.857143 0.855469 0 1.71261 0 2.74832C0 3.81976 0.857143 4.71261 1.89286 4.71261ZM16 16.8197V10.9626C16 8.10547 15.3572 5.89118 12 5.89118C10.3929 5.89118 9.32145 6.78402 8.85719 7.60546H8.82144V6.14118H5.64286V16.8197H8.96427V11.534C8.96427 10.1412 9.21427 8.81973 10.9286 8.81973C12.6428 8.81973 12.6786 10.3912 12.6786 11.6412V16.8197H16Z" fill="#2D2D2E"/>
</svg>
