<svg width="16" height="14" viewBox="0 0 16 14" fill="none" xmlns="http://www.w3.org/2000/svg">
<path d="M15.9561 1.37048L13.529 12.7204C13.3387 13.5294 12.8985 13.7435 12.2085 13.3628L8.53228 10.6502L6.74763 12.3634C6.5097 12.6013 6.2599 12.7204 5.99812 12.7204L6.28365 8.97276L13.1008 2.83377C13.2674 2.66721 13.2674 2.57209 13.1008 2.54824C12.958 2.50073 12.8034 2.53636 12.6368 2.65533L4.21357 7.97335L0.573048 6.83122C0.168543 6.71226 -0.0218179 6.53381 0.00198401 6.29588C0.0257768 6.05796 0.275611 5.85566 0.751504 5.68909L14.9211 0.192643C15.278 0.0736697 15.5635 0.121255 15.7777 0.335409C15.9917 0.525761 16.0512 0.870774 15.9561 1.37048Z" fill="#2D2D2E"/>
</svg>
