<svg width="71" height="32" viewBox="0 0 71 32" fill="none" xmlns="http://www.w3.org/2000/svg">
<path d="M70.7641 19.5752L64.0766 19.5978L57.4834 11.5214L57.6565 19.5892H52.4688V6.77733L57.4647 6.74459L57.4156 8.69803L64.0602 1.54297L70.2567 1.56168L61.9891 9.77764L70.7641 19.5752Z" fill="#8B32FE"/>
<path d="M51.3773 6.78125H46.7578V19.6251H51.3773V6.78125Z" fill="#8B32FE"/>
<path d="M49.4766 2.87276C49.4766 1.52189 50.4899 0.47969 52.0225 0.480469C53.555 0.481249 54.5668 1.45407 54.5661 2.80261C54.5661 4.22442 53.5527 5.26662 52.0201 5.26584C50.4876 5.26506 49.4758 4.22364 49.4766 2.87276Z" fill="#8B32FE"/>
<path d="M45.9134 12.2778V19.6246H41.2948V13.0129C41.2948 11.1647 40.4692 10.3821 39.1331 10.3813C37.6521 10.3813 36.5069 11.2808 36.5062 13.4136L36.5023 19.6223H31.8828L31.8898 6.77765L36.2926 6.77687V8.1753C37.3379 7.10972 38.8213 6.56563 40.4747 6.56641C43.5585 6.56563 45.9158 8.2969 45.9134 12.2778Z" fill="#8B32FE"/>
<path d="M5.4007 6.75781H0.78125V19.6017H5.4007V6.75781Z" fill="#8B32FE"/>
<path d="M12.5556 7.11719C14.3057 7.11719 16.2973 7.66284 17.5383 8.96851L15.7618 11.7163C15.033 11.0287 13.9151 10.5299 12.8207 10.5299C10.8282 10.5299 9.83042 11.9969 9.82964 13.4429C9.82886 14.8888 10.8493 16.4767 12.9641 16.4775C14.1786 16.4775 15.4929 15.7681 16.394 15.0104L17.9242 17.879C16.6832 19.1106 14.6409 19.8909 12.5502 19.8901C8.07728 19.8901 5.57579 16.8501 5.57813 13.4881C5.57501 10.2173 8.05779 7.11485 12.5556 7.11719Z" fill="#8B32FE"/>
<path d="M16.9063 13.1625C16.9063 9.3001 20.0462 6.55235 24.3499 6.55469C28.7004 6.55469 31.7858 9.30789 31.7834 13.1711C31.7834 17.0569 28.6926 19.8281 24.3421 19.8257C20.0391 19.8234 16.9039 17.0491 16.9063 13.1625ZM27.118 13.168C27.118 11.2247 25.9292 10.1342 24.3499 10.1334C22.7909 10.1334 21.5771 11.2247 21.5756 13.1649C21.5756 15.1323 22.7909 16.2463 24.3468 16.247C25.9214 16.2486 27.1149 15.1355 27.1157 13.1688L27.118 13.168Z" fill="#8B32FE"/>
<path d="M0.757813 2.87276C0.757813 1.52189 1.77119 0.47969 3.30373 0.480469C4.83627 0.481249 5.84731 1.45407 5.84653 2.80261C5.84653 4.22442 4.83315 5.26662 3.30139 5.26584C1.76963 5.26506 0.757033 4.22364 0.757813 2.87276Z" fill="#8B32FE"/>
<path d="M17.1897 26.7852C17.8076 26.7852 18.3184 26.9892 18.7222 27.3971C19.126 27.805 19.3274 28.3182 19.3263 28.9366C19.3263 29.5555 19.125 30.0687 18.7222 30.4761C18.3194 30.8836 17.8086 31.0878 17.1897 31.0888C16.9225 31.0952 16.6567 31.0487 16.4075 30.9521C16.1583 30.8556 15.9306 30.7108 15.7374 30.526L15.6306 30.9898H14.9922V25.4062H15.8364V27.2615C16.2148 26.9438 16.6957 26.7745 17.1897 26.7852ZM16.1599 29.8946C16.3166 30.0553 16.5106 30.1747 16.7247 30.242C16.9387 30.3094 17.1662 30.3226 17.3866 30.2806C17.6071 30.2385 17.8136 30.1425 17.9879 30.0011C18.1622 29.8597 18.2987 29.6773 18.3852 29.4703C18.4717 29.2632 18.5056 29.0379 18.4837 28.8146C18.4619 28.5912 18.385 28.3768 18.26 28.1904C18.135 28.004 17.9658 27.8515 17.7674 27.7466C17.5691 27.6416 17.3478 27.5874 17.1234 27.5889C16.8823 27.5853 16.6446 27.6456 16.4343 27.7635C16.2326 27.8775 16.0658 28.0443 15.9518 28.246C15.8343 28.4562 15.7741 28.6935 15.7772 28.9343C15.7725 29.1121 15.8041 29.289 15.8702 29.4541C15.9363 29.6192 16.0354 29.7691 16.1615 29.8946H16.1599Z" fill="white"/>
<path d="M24.4242 28.9482C24.4242 29.0262 24.4187 29.1181 24.4078 29.2296H21.0784C21.1154 29.5317 21.2628 29.8093 21.4924 30.0091C21.7275 30.2054 22.0266 30.3084 22.3327 30.2983C22.4877 30.2995 22.6418 30.275 22.7887 30.2258C22.9258 30.1807 23.0536 30.1112 23.166 30.0208C23.2753 29.9311 23.3668 29.8216 23.4357 29.6981H24.3252C24.1819 30.1103 23.9121 30.4667 23.5543 30.7166C23.1966 30.9664 22.769 31.0969 22.3327 31.0895C22.0524 31.0973 21.7736 31.0469 21.5139 30.9414C21.2541 30.836 21.019 30.6778 20.8235 30.4768C20.4349 30.0599 20.2188 29.5112 20.2188 28.9412C20.2188 28.3712 20.4349 27.8225 20.8235 27.4056C21.0188 27.2041 21.2537 27.0453 21.5135 26.9393C21.7733 26.8333 22.0522 26.7824 22.3327 26.7898C22.7166 26.7835 23.0946 26.8848 23.424 27.0821C23.7369 27.2707 23.992 27.5417 24.1615 27.8655C24.3366 28.1993 24.4269 28.5712 24.4242 28.9482ZM22.3327 27.549C22.0424 27.5408 21.7585 27.6349 21.5306 27.8148C21.3049 28.0006 21.1505 28.2586 21.0933 28.5452H23.5799C23.535 28.3507 23.4495 28.168 23.3289 28.0089C23.2154 27.8619 23.0681 27.7445 22.8994 27.6667C22.7213 27.5868 22.5279 27.5467 22.3327 27.549Z" fill="white"/>
<path d="M30.8988 26.8912H31.552V30.9968H30.8676L30.7842 30.4941C30.592 30.6909 30.3613 30.846 30.1064 30.9495C29.8516 31.0531 29.5781 31.1029 29.3031 31.0958C29.0186 31.1035 28.7355 31.0525 28.4716 30.946C28.2077 30.8396 27.9685 30.6799 27.769 30.4769C27.5678 30.2753 27.4097 30.0348 27.3045 29.7701C27.1993 29.5055 27.1491 29.2221 27.1571 28.9374C27.1571 28.3216 27.361 27.8097 27.769 27.4018C27.9692 27.2007 28.2085 27.0427 28.472 26.9374C28.7356 26.8322 29.0179 26.782 29.3015 26.7899C29.9044 26.7899 30.4038 26.9925 30.7998 27.3979L30.8988 26.8912ZM28.4004 29.9024C28.5267 30.0288 28.6776 30.1281 28.8437 30.194C29.0098 30.26 29.1876 30.2912 29.3662 30.2859C29.5438 30.2917 29.7205 30.2606 29.8854 30.1946C30.0503 30.1286 30.1998 30.0291 30.3243 29.9024C30.5664 29.6398 30.7008 29.2957 30.7008 28.9386C30.7008 28.5814 30.5664 28.2373 30.3243 27.9747C30.1984 27.848 30.0477 27.7486 29.8817 27.6829C29.7156 27.6171 29.5377 27.5865 29.3592 27.5928C29.1184 27.5893 28.8809 27.6496 28.6709 27.7674C28.4688 27.8809 28.3019 28.0478 28.1884 28.2499C28.0706 28.4599 28.0103 28.6974 28.0138 28.9382C28.0088 29.1168 28.0405 29.2945 28.107 29.4604C28.1735 29.6263 28.2734 29.7767 28.4004 29.9024Z" fill="white"/>
<path d="M35.0257 26.7931C35.5022 26.7931 35.8813 26.9526 36.163 27.2717C36.4446 27.5908 36.5852 28.0065 36.5847 28.5189V30.9899H35.7405V28.6857C35.7405 28.3157 35.6607 28.0333 35.5012 27.8384C35.3416 27.6435 35.1078 27.5458 34.7996 27.5453C34.6502 27.5417 34.5018 27.5713 34.3652 27.6318C34.2285 27.6923 34.1069 27.7823 34.0092 27.8953C33.7956 28.1443 33.6843 28.4648 33.6973 28.7925V30.9899H32.8516V26.8874H33.437L33.6038 27.4572C33.7625 27.2479 33.9702 27.0809 34.2087 26.9708C34.4641 26.8507 34.7434 26.7899 35.0257 26.7931Z" fill="white"/>
<path d="M40.4062 30.9937V26.7891H41.2848V30.9937H40.4062Z" fill="white"/>
<path d="M44.0682 31.0894C43.7287 31.0847 43.3952 30.9999 43.0948 30.8417C42.7944 30.6835 42.5357 30.4565 42.3398 30.1793C42.1439 29.902 42.0164 29.5824 41.9676 29.2464C41.9189 28.9104 41.9503 28.5677 42.0593 28.2462C42.1683 27.9247 42.3519 27.6336 42.5949 27.3965C42.838 27.1595 43.1336 26.9834 43.4578 26.8825C43.7819 26.7815 44.1253 26.7587 44.46 26.8159C44.7946 26.873 45.111 27.0086 45.3832 27.2113C45.7505 27.4914 46.0063 27.8928 46.1051 28.344H45.2686C45.1676 28.1166 45.001 27.9247 44.79 27.7929C44.5738 27.6578 44.3231 27.5879 44.0682 27.5917C43.8391 27.5893 43.6137 27.6492 43.4159 27.7649C43.2182 27.8806 43.0557 28.0479 42.9457 28.2489C42.8305 28.4598 42.7717 28.6969 42.775 28.9372C42.7708 29.1138 42.8019 29.2895 42.8665 29.454C42.931 29.6184 43.0276 29.7684 43.1507 29.8952C43.2684 30.0211 43.4112 30.1209 43.5699 30.188C43.7287 30.2552 43.8998 30.2882 44.0721 30.2849C44.3262 30.2891 44.5757 30.2177 44.7892 30.0799C45.0048 29.937 45.173 29.7332 45.2725 29.4945H46.1207C46.017 29.9541 45.7579 30.3638 45.3871 30.6544C45.0103 30.9462 44.5447 31.0997 44.0682 31.0894Z" fill="white"/>
<path d="M50.5589 30.4761C50.14 30.8846 49.6167 31.0888 48.9889 31.0888C48.3611 31.0888 47.8376 30.8846 47.4182 30.4761C47.2122 30.2773 47.0499 30.0377 46.9417 29.7726C46.8335 29.5075 46.7818 29.2228 46.7899 28.9366C46.7852 28.5503 46.884 28.1697 47.076 27.8344C47.262 27.5085 47.5355 27.2412 47.8656 27.0627C48.2114 26.8804 48.5965 26.7852 48.9874 26.7852C49.3783 26.7852 49.7633 26.8804 50.1091 27.0627C50.4398 27.2409 50.7139 27.5082 50.9003 27.8344C51.0912 28.1711 51.1886 28.5527 51.1825 28.9397C51.1825 29.5587 50.9746 30.0708 50.5589 30.4761ZM48.9889 30.282C49.2306 30.2861 49.4691 30.2273 49.6811 30.1113C49.8811 29.9994 50.0455 29.8335 50.1559 29.6327C50.2717 29.4192 50.3305 29.1795 50.3266 28.9366C50.3327 28.7586 50.3025 28.5811 50.2379 28.4151C50.1733 28.2491 50.0757 28.0979 49.9508 27.9708C49.6899 27.7269 49.3461 27.5912 48.9889 27.5912C48.6317 27.5912 48.2879 27.7269 48.027 27.9708C47.7849 28.2342 47.6506 28.5789 47.6506 28.9366C47.6506 29.2943 47.7849 29.639 48.027 29.9024C48.1523 30.0289 48.3023 30.1282 48.4676 30.194C48.633 30.2599 48.8102 30.2909 48.9881 30.2852L48.9889 30.282Z" fill="white"/>
<path d="M55.661 25.668H56.5185V30.9904H55.781L53.0215 27.1888V30.9904H52.1641V25.668H52.9553L55.6618 29.4096L55.661 25.668Z" fill="white"/>
<path d="M54.3591 25.3674C54.635 25.3674 54.8587 25.1566 54.8587 24.8966C54.8587 24.6366 54.635 24.4258 54.3591 24.4258C54.0831 24.4258 53.8594 24.6366 53.8594 24.8966C53.8594 25.1566 54.0831 25.3674 54.3591 25.3674Z" fill="white"/>
<path d="M40.8434 26.3088C41.1194 26.3088 41.3431 26.098 41.3431 25.838C41.3431 25.578 41.1194 25.3672 40.8434 25.3672C40.5675 25.3672 40.3438 25.578 40.3438 25.838C40.3438 26.098 40.5675 26.3088 40.8434 26.3088Z" fill="white"/>
</svg>
