<svg width="17" height="17" viewBox="0 0 17 17" fill="none" xmlns="http://www.w3.org/2000/svg">
<path d="M10.4193 4.50633C9.54971 5.37592 8.13982 5.37592 7.27023 4.50633C6.40064 3.63674 6.40064 2.22686 7.27023 1.35727C8.13982 0.487681 9.54971 0.487681 10.4193 1.35727C11.2889 2.22686 11.2889 3.63674 10.4193 4.50633Z" fill="#8B32FE"/>
<path d="M16.1936 10.2786C15.324 11.1482 13.9141 11.1482 13.0445 10.2786C12.1749 9.40899 12.1749 7.99911 13.0445 7.12952C13.9141 6.25993 15.324 6.25993 16.1936 7.12952C17.0632 7.99911 17.0632 9.40899 16.1936 10.2786Z" fill="#8B32FE"/>
<path d="M4.645 10.2806C3.77541 11.1502 2.36553 11.1502 1.49594 10.2806C0.626353 9.41104 0.626353 8.00116 1.49594 7.13157C2.36553 6.26198 3.77541 6.26198 4.645 7.13157C5.51459 8.00116 5.51459 9.41104 4.645 10.2806Z" fill="#8B32FE"/>
<path d="M10.4193 16.0529C9.54971 16.9225 8.13982 16.9225 7.27023 16.0529C6.40064 15.1833 6.40064 13.7734 7.27023 12.9038C8.13982 12.0342 9.54971 12.0342 10.4193 12.9038C11.2889 13.7734 11.2889 15.1833 10.4193 16.0529Z" fill="#8B32FE"/>
</svg>
