<svg width="17" height="17" viewBox="0 0 17 17" fill="none" xmlns="http://www.w3.org/2000/svg">
<path d="M0.3125 8.08593C0.3125 12.5042 3.8941 16.086 8.3125 16.086V14.086C4.9987 14.086 2.3125 11.3998 2.3125 8.08593C2.3125 6.42913 2.9841 4.92913 4.0699 3.84333L4.3125 3.60073V6.08593H6.3125V0.0859375H0.3125V2.08593H2.9989L2.6557 2.42913C1.2079 3.87673 0.3125 5.87673 0.3125 8.08593Z" fill="white"/>
<path d="M16.3125 8.08593C16.3125 3.66773 12.7309 0.0859375 8.3125 0.0859375V2.08593C11.6263 2.08593 14.3125 4.77213 14.3125 8.08593C14.3125 9.74273 13.6409 11.2428 12.5551 12.3286L12.3125 12.5712V10.086H10.3125V16.086H16.3125V14.086H13.6261L13.9693 13.7428C15.4171 12.2952 16.3125 10.2952 16.3125 8.08593Z" fill="white"/>
</svg>
