<?xml version="1.0" standalone="no"?>
<!DOCTYPE svg PUBLIC "-//W3C//DTD SVG 20010904//EN"
 "http://www.w3.org/TR/2001/REC-SVG-20010904/DTD/svg10.dtd">
<svg version="1.0" xmlns="http://www.w3.org/2000/svg"
 width="301.000000pt" height="301.000000pt" viewBox="0 0 301.000000 301.000000"
 preserveAspectRatio="xMidYMid meet">
<metadata>
Created by potrace 1.14, written by Peter Selinger 2001-2017
</metadata>
<g transform="translate(0.000000,301.000000) scale(0.100000,-0.100000)"
fill="#000000" stroke="none">
<path d="M898 3005 c-2 -2 -23 -5 -48 -8 -70 -9 -187 -45 -267 -82 -303 -140
-524 -431 -571 -754 -10 -64 -9 -1244 1 -1311 29 -203 150 -428 308 -574 158
-146 370 -243 575 -262 87 -8 1158 -8 1214 0 19 3 51 7 71 10 59 9 199 56 264
89 205 103 390 299 475 504 17 41 33 83 35 92 1 9 8 34 13 56 6 22 14 54 19
70 4 17 8 309 10 650 2 510 0 633 -12 695 -78 398 -352 693 -740 797 l-100 26
-622 2 c-343 1 -624 1 -625 0z"/>
</g>
</svg>
