<svg width="17" height="17" viewBox="0 0 17 17" fill="none" xmlns="http://www.w3.org/2000/svg">
<path d="M10.4193 4.6411C9.54971 5.51068 8.13982 5.51068 7.27023 4.6411C6.40064 3.77151 6.40064 2.36162 7.27023 1.49204C8.13982 0.622447 9.54971 0.622447 10.4193 1.49204C11.2889 2.36162 11.2889 3.77151 10.4193 4.6411Z" fill="white"/>
<path d="M16.1936 10.4133C15.324 11.2829 13.9141 11.2829 13.0445 10.4133C12.1749 9.54376 12.1749 8.13388 13.0445 7.26429C13.9141 6.3947 15.324 6.3947 16.1936 7.26429C17.0632 8.13388 17.0632 9.54376 16.1936 10.4133Z" fill="white"/>
<path d="M4.645 10.4154C3.77541 11.285 2.36553 11.285 1.49594 10.4154C0.626353 9.54581 0.626353 8.13593 1.49594 7.26634C2.36553 6.39675 3.77541 6.39675 4.645 7.26634C5.51459 8.13593 5.51459 9.54581 4.645 10.4154Z" fill="white"/>
<path d="M10.4193 16.1877C9.54971 17.0572 8.13982 17.0572 7.27023 16.1877C6.40064 15.3181 6.40064 13.9082 7.27023 13.0386C8.13982 12.169 9.54971 12.169 10.4193 13.0386C11.2889 13.9082 11.2889 15.3181 10.4193 16.1877Z" fill="white"/>
</svg>
