<svg width="21" height="20" viewBox="0 0 21 20" fill="none" xmlns="http://www.w3.org/2000/svg">
<path d="M9.76113 12.5201C9.76113 12.2121 9.79613 11.9041 9.86613 11.5961C9.94079 11.2881 10.0505 11.0081 10.1951 10.7561C10.3118 10.5181 10.4378 10.3315 10.5731 10.1961C10.7131 10.0561 10.8718 9.91379 11.0491 9.76912C11.2311 9.62445 11.4458 9.42145 11.6931 9.16012C11.8845 8.95012 12.0105 8.74479 12.0711 8.54412C12.1365 8.33879 12.1691 8.11479 12.1691 7.87212C12.1691 7.74612 12.1551 7.62479 12.1271 7.50812C12.1038 7.39145 12.0571 7.28879 11.9871 7.20012C11.8751 7.04612 11.7258 6.93645 11.5391 6.87112C11.3571 6.80112 11.1611 6.76612 10.9511 6.76612C10.7925 6.76612 10.6361 6.78479 10.4821 6.82212C10.3328 6.85945 10.2045 6.92012 10.0971 7.00412C9.96646 7.10212 9.86846 7.22579 9.80313 7.37512C9.74246 7.52445 9.71446 7.69012 9.71913 7.87212H7.70312C7.75913 7.37279 7.90146 6.91545 8.13013 6.50012C8.35879 6.08479 8.65513 5.75812 9.01913 5.52012C9.28513 5.34279 9.57913 5.20745 9.90113 5.11412C10.2231 5.02079 10.5451 4.97412 10.8671 4.97412C11.3991 4.97412 11.9008 5.05812 12.3721 5.22612C12.8435 5.38945 13.2331 5.66012 13.5411 6.03812C13.7465 6.27612 13.9051 6.55379 14.0171 6.87112C14.1291 7.18379 14.1851 7.49879 14.1851 7.81612C14.1851 8.32479 14.0708 8.78679 13.8421 9.20212C13.6135 9.61745 13.3311 10.0048 12.9951 10.3641C12.8505 10.5181 12.7198 10.6535 12.6031 10.7701C12.4911 10.8821 12.3885 10.9895 12.2951 11.0921C12.2065 11.1901 12.1271 11.2928 12.0571 11.4001C11.9265 11.6148 11.8471 11.7898 11.8191 11.9251C11.7911 12.0605 11.7771 12.2588 11.7771 12.5201H9.76113ZM9.77513 15.2501V13.2341H11.7771V15.2501H9.77513Z" fill="#8B32FE"/>
<circle cx="10.5" cy="10" r="9" stroke="#8B32FE" stroke-width="2"/>
</svg>
